<svg width="1440" height="900" viewBox="0 0 1440 900" fill="none" xmlns="http://www.w3.org/2000/svg">
<rect x="41" y="47" width="44" height="44" fill="#09A4F8"/>
<rect x="41" y="47" width="44" height="44" fill="url(#paint0_linear)" fill-opacity="0.7"/>
<rect x="303.677" y="351.948" width="26.5037" height="26.5037" transform="rotate(4.90305 303.677 351.948)" fill="url(#paint1_linear)"/>
<rect x="1064.27" y="142" width="20.3756" height="20.3756" transform="rotate(4.90305 1064.27 142)" fill="url(#paint2_linear)"/>
<rect x="1154.67" y="639.895" width="44" height="44" transform="rotate(46.2364 1154.67 639.895)" fill="url(#paint3_linear)"/>
<path d="M102.086 571.75L128.5 526L154.914 571.75H102.086Z" stroke="url(#paint4_linear)" stroke-width="8"/>
<path d="M756.277 284.736L783.786 281.382L772.937 306.882L756.277 284.736Z" stroke="url(#paint5_linear)" stroke-width="8"/>
<circle cx="596" cy="444" r="23" stroke="url(#paint6_linear)" stroke-opacity="0.5" stroke-width="8"/>
<circle cx="1230" cy="800" r="29" stroke="url(#paint7_linear)" stroke-width="8"/>
<circle cx="464.5" cy="808.5" r="20.5" stroke="url(#paint8_linear)" stroke-width="8"/>
<circle cx="968.5" cy="466.5" r="12.5" stroke="url(#paint9_linear)" stroke-width="8"/>
<circle cx="424.5" cy="159.5" r="11.5" stroke="url(#paint10_linear)" stroke-width="8"/>
<circle cx="1373.5" cy="47.5" r="11.5" stroke="url(#paint11_linear)" stroke-width="8"/>
<circle cx="1143" cy="284" r="5" fill="#09A4F8" fill-opacity="0.5"/>
<circle cx="1143" cy="310" r="5" fill="#09A4F8" fill-opacity="0.5"/>
<circle cx="1143" cy="336" r="5" fill="#09A4F8" fill-opacity="0.5"/>
<circle cx="1143" cy="362" r="5" fill="#09A4F8" fill-opacity="0.5"/>
<circle cx="1143" cy="388" r="5" fill="#09A4F8" fill-opacity="0.5"/>
<circle cx="1143" cy="414" r="5" fill="#09A4F8" fill-opacity="0.5"/>
<circle cx="1143" cy="440" r="5" fill="#09A4F8" fill-opacity="0.5"/>
<circle cx="1174" cy="284" r="5" fill="#09A4F8" fill-opacity="0.5"/>
<circle cx="1174" cy="310" r="5" fill="#09A4F8" fill-opacity="0.5"/>
<circle cx="1174" cy="336" r="5" fill="#09A4F8" fill-opacity="0.5"/>
<circle cx="1174" cy="362" r="5" fill="#09A4F8" fill-opacity="0.5"/>
<circle cx="1174" cy="388" r="5" fill="#09A4F8" fill-opacity="0.5"/>
<circle cx="1174" cy="414" r="5" fill="#09A4F8" fill-opacity="0.5"/>
<circle cx="1174" cy="440" r="5" fill="#09A4F8" fill-opacity="0.5"/>
<circle cx="1205" cy="284" r="5" fill="#09A4F8" fill-opacity="0.5"/>
<circle cx="1205" cy="310" r="5" fill="#09A4F8" fill-opacity="0.5"/>
<circle cx="1205" cy="336" r="5" fill="#09A4F8" fill-opacity="0.5"/>
<circle cx="1205" cy="362" r="5" fill="#09A4F8" fill-opacity="0.5"/>
<circle cx="1205" cy="388" r="5" fill="#09A4F8" fill-opacity="0.5"/>
<circle cx="1205" cy="414" r="5" fill="#09A4F8" fill-opacity="0.5"/>
<circle cx="1205" cy="440" r="5" fill="#09A4F8" fill-opacity="0.5"/>
<circle cx="1236" cy="284" r="5" fill="#09A4F8" fill-opacity="0.5"/>
<circle cx="1236" cy="310" r="5" fill="#09A4F8" fill-opacity="0.5"/>
<circle cx="1236" cy="336" r="5" fill="#09A4F8" fill-opacity="0.5"/>
<circle cx="1236" cy="362" r="5" fill="#09A4F8" fill-opacity="0.5"/>
<circle cx="1236" cy="388" r="5" fill="#09A4F8" fill-opacity="0.5"/>
<circle cx="1236" cy="414" r="5" fill="#09A4F8" fill-opacity="0.5"/>
<circle cx="1236" cy="440" r="5" fill="#09A4F8" fill-opacity="0.5"/>
<circle cx="140.5" cy="796.5" r="5" transform="rotate(-90 140.5 796.5)" fill="#FFC700" fill-opacity="0.75"/>
<circle cx="429" cy="355" r="5" transform="rotate(-90 429 355)" fill="#FFC700" fill-opacity="0.75"/>
<circle cx="166.5" cy="796.5" r="5" transform="rotate(-90 166.5 796.5)" fill="#FFC700" fill-opacity="0.75"/>
<circle cx="455" cy="355" r="5" transform="rotate(-90 455 355)" fill="#FFC700" fill-opacity="0.75"/>
<circle cx="192.5" cy="796.5" r="5" transform="rotate(-90 192.5 796.5)" fill="#FFC700" fill-opacity="0.75"/>
<circle cx="481" cy="355" r="5" transform="rotate(-90 481 355)" fill="#FFC700" fill-opacity="0.75"/>
<circle cx="218.5" cy="796.5" r="5" transform="rotate(-90 218.5 796.5)" fill="#C4C4C4"/>
<circle cx="507" cy="355" r="5" transform="rotate(-90 507 355)" fill="#FFC700" fill-opacity="0.75"/>
<circle cx="244.5" cy="796.5" r="5" transform="rotate(-90 244.5 796.5)" fill="#C4C4C4"/>
<circle cx="270.5" cy="796.5" r="5" transform="rotate(-90 270.5 796.5)" fill="#C4C4C4"/>
<circle cx="296.5" cy="796.5" r="5" transform="rotate(-90 296.5 796.5)" fill="#C4C4C4"/>
<circle cx="140.5" cy="765.5" r="5" transform="rotate(-90 140.5 765.5)" fill="#FFC700" fill-opacity="0.75"/>
<circle cx="429" cy="324" r="5" transform="rotate(-90 429 324)" fill="#FFC700" fill-opacity="0.75"/>
<circle cx="166.5" cy="765.5" r="5" transform="rotate(-90 166.5 765.5)" fill="#FFC700" fill-opacity="0.75"/>
<circle cx="455" cy="324" r="5" transform="rotate(-90 455 324)" fill="#FFC700" fill-opacity="0.75"/>
<circle cx="192.5" cy="765.5" r="5" transform="rotate(-90 192.5 765.5)" fill="#FFC700" fill-opacity="0.75"/>
<circle cx="481" cy="324" r="5" transform="rotate(-90 481 324)" fill="#FFC700" fill-opacity="0.75"/>
<circle cx="218.5" cy="765.5" r="5" transform="rotate(-90 218.5 765.5)" fill="#C4C4C4"/>
<circle cx="507" cy="324" r="5" transform="rotate(-90 507 324)" fill="#FFC700" fill-opacity="0.75"/>
<circle cx="244.5" cy="765.5" r="5" transform="rotate(-90 244.5 765.5)" fill="#C4C4C4"/>
<circle cx="270.5" cy="765.5" r="5" transform="rotate(-90 270.5 765.5)" fill="#C4C4C4"/>
<circle cx="296.5" cy="765.5" r="5" transform="rotate(-90 296.5 765.5)" fill="#C4C4C4"/>
<circle cx="140.5" cy="734.5" r="5" transform="rotate(-90 140.5 734.5)" fill="#C4C4C4"/>
<circle cx="429" cy="293" r="5" transform="rotate(-90 429 293)" fill="#FFC700" fill-opacity="0.75"/>
<circle cx="166.5" cy="734.5" r="5" transform="rotate(-90 166.5 734.5)" fill="#C4C4C4"/>
<circle cx="455" cy="293" r="5" transform="rotate(-90 455 293)" fill="#FFC700" fill-opacity="0.75"/>
<circle cx="192.5" cy="734.5" r="5" transform="rotate(-90 192.5 734.5)" fill="#C4C4C4"/>
<circle cx="481" cy="293" r="5" transform="rotate(-90 481 293)" fill="#FFC700" fill-opacity="0.75"/>
<circle cx="218.5" cy="734.5" r="5" transform="rotate(-90 218.5 734.5)" fill="#C4C4C4"/>
<circle cx="507" cy="293" r="5" transform="rotate(-90 507 293)" fill="#FFC700" fill-opacity="0.75"/>
<circle cx="244.5" cy="734.5" r="5" transform="rotate(-90 244.5 734.5)" fill="#09A4F8" fill-opacity="0.5"/>
<circle cx="270.5" cy="734.5" r="5" transform="rotate(-90 270.5 734.5)" fill="#09A4F8" fill-opacity="0.5"/>
<circle cx="296.5" cy="734.5" r="5" transform="rotate(-90 296.5 734.5)" fill="#09A4F8" fill-opacity="0.5"/>
<circle cx="140.5" cy="703.5" r="5" transform="rotate(-90 140.5 703.5)" fill="#C4C4C4"/>
<circle cx="429" cy="262" r="5" transform="rotate(-90 429 262)" fill="#FFC700" fill-opacity="0.75"/>
<circle cx="166.5" cy="703.5" r="5" transform="rotate(-90 166.5 703.5)" fill="#C4C4C4"/>
<circle cx="455" cy="262" r="5" transform="rotate(-90 455 262)" fill="#FFC700" fill-opacity="0.75"/>
<circle cx="192.5" cy="703.5" r="5" transform="rotate(-90 192.5 703.5)" fill="#C4C4C4"/>
<circle cx="481" cy="262" r="5" transform="rotate(-90 481 262)" fill="#FFC700" fill-opacity="0.75"/>
<circle cx="218.5" cy="703.5" r="5" transform="rotate(-90 218.5 703.5)" fill="#C4C4C4"/>
<circle cx="507" cy="262" r="5" transform="rotate(-90 507 262)" fill="#FFC700" fill-opacity="0.75"/>
<circle cx="244.5" cy="703.5" r="5" transform="rotate(-90 244.5 703.5)" fill="#09A4F8" fill-opacity="0.5"/>
<circle cx="270.5" cy="703.5" r="5" transform="rotate(-90 270.5 703.5)" fill="#09A4F8" fill-opacity="0.5"/>
<circle cx="296.5" cy="703.5" r="5" transform="rotate(-90 296.5 703.5)" fill="#09A4F8" fill-opacity="0.5"/>
<defs>
<linearGradient id="paint0_linear" x1="27" y1="54.5" x2="63" y2="91" gradientUnits="userSpaceOnUse">
<stop stop-color="#09A4F8"/>
<stop offset="1" stop-color="#FFC700" stop-opacity="0.75"/>
</linearGradient>
<linearGradient id="paint1_linear" x1="295.244" y1="356.466" x2="316.929" y2="378.452" gradientUnits="userSpaceOnUse">
<stop stop-color="#F809C3"/>
<stop offset="1" stop-color="#FFC700" stop-opacity="0.75"/>
</linearGradient>
<linearGradient id="paint2_linear" x1="1057.78" y1="145.473" x2="1074.45" y2="162.376" gradientUnits="userSpaceOnUse">
<stop stop-color="#F809C3"/>
<stop offset="1" stop-color="#FFC700" stop-opacity="0.75"/>
</linearGradient>
<linearGradient id="paint3_linear" x1="1176.67" y1="639.895" x2="1105.17" y2="691.729" gradientUnits="userSpaceOnUse">
<stop stop-color="#09A4F8"/>
<stop offset="1" stop-color="#F8E009" stop-opacity="0"/>
</linearGradient>
<linearGradient id="paint4_linear" x1="90" y1="543" x2="128.5" y2="595" gradientUnits="userSpaceOnUse">
<stop stop-color="#09A4F8"/>
<stop offset="1" stop-color="#FFC700" stop-opacity="0.75"/>
</linearGradient>
<linearGradient id="paint5_linear" x1="763.298" y1="266.762" x2="751.821" y2="305.428" gradientUnits="userSpaceOnUse">
<stop stop-color="#09A4F8"/>
<stop offset="1" stop-color="#FFC700" stop-opacity="0.75"/>
</linearGradient>
<linearGradient id="paint6_linear" x1="557.545" y1="422.727" x2="596" y2="471" gradientUnits="userSpaceOnUse">
<stop stop-color="#F809C3"/>
<stop offset="1" stop-color="#09A4F8"/>
</linearGradient>
<linearGradient id="paint7_linear" x1="1183" y1="774" x2="1230" y2="833" gradientUnits="userSpaceOnUse">
<stop stop-color="#F809C3"/>
<stop offset="1" stop-color="#FFC700" stop-opacity="0.75"/>
</linearGradient>
<linearGradient id="paint8_linear" x1="429.606" y1="789.197" x2="464.5" y2="833" gradientUnits="userSpaceOnUse">
<stop stop-color="#F809C3"/>
<stop offset="1" stop-color="#FFC700" stop-opacity="0.75"/>
</linearGradient>
<linearGradient id="paint9_linear" x1="945" y1="453.5" x2="968.5" y2="483" gradientUnits="userSpaceOnUse">
<stop stop-color="#F809C3"/>
<stop offset="1" stop-color="#FFC700" stop-opacity="0.75"/>
</linearGradient>
<linearGradient id="paint10_linear" x1="402.424" y1="147.288" x2="424.5" y2="175" gradientUnits="userSpaceOnUse">
<stop stop-color="#F809C3" stop-opacity="0.5"/>
<stop offset="1" stop-color="#09A4F8"/>
</linearGradient>
<linearGradient id="paint11_linear" x1="1351.42" y1="35.2879" x2="1373.5" y2="63" gradientUnits="userSpaceOnUse">
<stop stop-color="#F809C3"/>
<stop offset="1" stop-color="#09A4F8"/>
</linearGradient>
</defs>
</svg>
